<svg width="80" height="80" viewBox="0 0 80 80" fill="none" xmlns="http://www.w3.org/2000/svg">
<path d="M13.3333 70V30L40 10L66.6666 30V70H13.3333ZM33.3333 60H36.6666V46.6667C38.0555 46.6667 39.2355 46.18 40.2066 45.2067C41.18 44.2356 41.6666 43.0556 41.6666 41.6667V31.6667H38.3333V41.6667H36.6666V31.6667H33.3333V41.6667H31.6666V31.6667H28.3333V41.6667C28.3333 43.0556 28.82 44.2356 29.7933 45.2067C30.7644 46.18 31.9444 46.6667 33.3333 46.6667V60ZM46.6666 60H50V31.6667C48.1666 31.6667 46.5978 32.3189 45.2933 33.6233C43.9866 34.93 43.3333 36.5 43.3333 38.3333V48.3333H46.6666V60Z" fill="black"/>
</svg>
