<svg width="60" height="60" viewBox="0 0 60 60" fill="none" xmlns="http://www.w3.org/2000/svg">
<path d="M22.65 4.82499C17.925 4.79999 13.325 9.34999 15.425 15H7.5C6.17392 15 4.90215 15.5268 3.96447 16.4645C3.02678 17.4021 2.5 18.6739 2.5 20V25C2.5 25.663 2.76339 26.2989 3.23223 26.7678C3.70107 27.2366 4.33696 27.5 5 27.5H27.5V20H32.5V27.5H55C55.663 27.5 56.2989 27.2366 56.7678 26.7678C57.2366 26.2989 57.5 25.663 57.5 25V20C57.5 18.6739 56.9732 17.4021 56.0355 16.4645C55.0979 15.5268 53.8261 15 52.5 15H44.575C47.5 6.82499 36.5 1.04999 31.425 8.09999L30 9.99999L28.575 8.04999C27 5.82499 24.825 4.84999 22.65 4.82499M22.5 9.99999C24.725 9.99999 25.85 12.7 24.275 14.275C22.7 15.85 20 14.725 20 12.5C20 11.837 20.2634 11.2011 20.7322 10.7322C21.2011 10.2634 21.837 9.99999 22.5 9.99999M37.5 9.99999C39.725 9.99999 40.85 12.7 39.275 14.275C37.7 15.85 35 14.725 35 12.5C35 11.837 35.2634 11.2011 35.7322 10.7322C36.2011 10.2634 36.837 9.99999 37.5 9.99999M5 30V50C5 51.3261 5.52678 52.5978 6.46447 53.5355C7.40215 54.4732 8.67392 55 10 55H50C51.3261 55 52.5979 54.4732 53.5355 53.5355C54.4732 52.5978 55 51.3261 55 50V30H32.5V50H27.5V30H5Z" fill="black"/>
</svg>
