<svg width="312" height="552" viewBox="0 0 312 552" fill="none" xmlns="http://www.w3.org/2000/svg">
<path d="M87.4766 61.1855L91.2363 59.1074L87.0801 51.5859L83.3203 53.6641C80.4374 55.2592 77.8832 57.3867 75.793 59.9336L58.5938 50L75.7949 40.0664C77.8851 42.6133 80.4394 44.7408 83.3223 46.3359L87.082 48.4141L91.2383 40.8926L87.4785 38.8145C85.9688 37.9807 84.5912 36.9276 83.3906 35.6895L93.75 29.6973L89.4531 22.2656L79.1016 28.2383C78.6267 26.5784 78.4016 24.857 78.4336 23.1309L78.5137 18.834L69.9199 18.6738L69.8398 22.9707C69.7792 26.262 70.3419 29.535 71.498 32.6172L54.2969 42.5566V22.6914C57.547 22.1538 60.6658 21.0053 63.4883 19.3066L67.168 17.0898L62.7324 9.72852L59.0527 11.9453C57.5736 12.8347 55.9709 13.5001 54.2969 13.9199V3.125H45.7031V13.9199C44.0291 13.5001 42.4264 12.8347 40.9473 11.9453L37.2676 9.72852L32.832 17.0898L36.5117 19.3066C39.3342 21.0053 42.453 22.1538 45.7031 22.6914V42.5566L28.502 32.6172C29.6618 29.5331 30.2271 26.2573 30.168 22.9629L30.0879 18.666L21.4941 18.8262L21.5742 23.123C21.6062 24.8492 21.3811 26.5706 20.9063 28.2305L10.5469 22.2656L6.25 29.707L16.6113 35.6914C15.4108 36.9295 14.0331 37.9826 12.5234 38.8164L8.76367 40.8926L12.9199 48.4141L16.6797 46.3359C19.5626 44.7408 22.1168 42.6133 24.207 40.0664L41.4062 50L24.2051 59.9336C22.1149 57.3867 19.5606 55.2592 16.6777 53.6641L12.9199 51.5859L8.76367 59.1074L12.5234 61.1855C14.0331 62.0193 15.4108 63.0724 16.6113 64.3105L6.25 70.3125L10.5469 77.7539L20.9082 71.7715C21.3831 73.4314 21.6082 75.1527 21.5762 76.8789L21.4961 81.1758L30.0898 81.3359L30.1699 77.0391C30.2286 73.7439 29.6627 70.4674 28.502 67.3828L45.7031 57.4434V77.3086C42.453 77.8462 39.3342 78.9947 36.5117 80.6934L32.832 82.9102L37.2676 90.2715L40.9473 88.0547C42.4264 87.1653 44.0291 86.4999 45.7031 86.0801V96.875H54.2969V86.0801C55.9709 86.4999 57.5736 87.1653 59.0527 88.0547L62.7324 90.2715L67.168 82.9102L63.4883 80.6934C60.6658 78.9947 57.547 77.8462 54.2969 77.3086V57.4434L71.498 67.3828C70.3382 70.4669 69.7729 73.7427 69.832 77.0371L69.9121 81.334L78.5059 81.1738L78.4258 76.877C78.3955 75.1478 78.6233 73.4237 79.1016 71.7617L89.4531 77.7441L93.75 70.3125L83.3984 64.3184C84.5955 63.0783 85.9698 62.0225 87.4766 61.1855V61.1855Z" fill="white"/>
<path d="M87.4766 287.186L91.2363 285.107L87.0801 277.586L83.3203 279.664C80.4374 281.259 77.8832 283.387 75.793 285.934L58.5938 276L75.7949 266.066C77.8851 268.613 80.4394 270.741 83.3223 272.336L87.082 274.414L91.2383 266.893L87.4785 264.814C85.9688 263.981 84.5912 262.928 83.3906 261.689L93.75 255.697L89.4531 248.266L79.1016 254.238C78.6267 252.578 78.4016 250.857 78.4336 249.131L78.5137 244.834L69.9199 244.674L69.8398 248.971C69.7792 252.262 70.3419 255.535 71.498 258.617L54.2969 268.557V248.691C57.547 248.154 60.6658 247.005 63.4883 245.307L67.168 243.09L62.7324 235.729L59.0527 237.945C57.5736 238.835 55.9709 239.5 54.2969 239.92V229.125H45.7031V239.92C44.0291 239.5 42.4264 238.835 40.9473 237.945L37.2676 235.729L32.832 243.09L36.5117 245.307C39.3342 247.005 42.453 248.154 45.7031 248.691V268.557L28.502 258.617C29.6618 255.533 30.2271 252.257 30.168 248.963L30.0879 244.666L21.4941 244.826L21.5742 249.123C21.6062 250.849 21.3811 252.571 20.9063 254.23L10.5469 248.266L6.25 255.707L16.6113 261.691C15.4108 262.93 14.0331 263.983 12.5234 264.816L8.76367 266.893L12.9199 274.414L16.6797 272.336C19.5626 270.741 22.1168 268.613 24.207 266.066L41.4062 276L24.2051 285.934C22.1149 283.387 19.5606 281.259 16.6777 279.664L12.9199 277.586L8.76367 285.107L12.5234 287.186C14.0331 288.019 15.4108 289.072 16.6113 290.311L6.25 296.312L10.5469 303.754L20.9082 297.771C21.3831 299.431 21.6082 301.153 21.5762 302.879L21.4961 307.176L30.0898 307.336L30.1699 303.039C30.2286 299.744 29.6627 296.467 28.502 293.383L45.7031 283.443V303.309C42.453 303.846 39.3342 304.995 36.5117 306.693L32.832 308.91L37.2676 316.271L40.9473 314.055C42.4264 313.165 44.0291 312.5 45.7031 312.08V322.875H54.2969V312.08C55.9709 312.5 57.5736 313.165 59.0527 314.055L62.7324 316.271L67.168 308.91L63.4883 306.693C60.6658 304.995 57.547 303.846 54.2969 303.309V283.443L71.498 293.383C70.3382 296.467 69.7729 299.743 69.832 303.037L69.9121 307.334L78.5059 307.174L78.4258 302.877C78.3955 301.148 78.6233 299.424 79.1016 297.762L89.4531 303.744L93.75 296.312L83.3984 290.318C84.5955 289.078 85.9698 288.023 87.4766 287.186V287.186Z" fill="white"/>
<path d="M87.4766 513.186L91.2363 511.107L87.0801 503.586L83.3203 505.664C80.4374 507.259 77.8832 509.387 75.793 511.934L58.5938 502L75.7949 492.066C77.8851 494.613 80.4394 496.741 83.3223 498.336L87.082 500.414L91.2383 492.893L87.4785 490.814C85.9688 489.981 84.5912 488.928 83.3906 487.689L93.75 481.697L89.4531 474.266L79.1016 480.238C78.6267 478.578 78.4016 476.857 78.4336 475.131L78.5137 470.834L69.9199 470.674L69.8398 474.971C69.7792 478.262 70.3419 481.535 71.498 484.617L54.2969 494.557V474.691C57.547 474.154 60.6658 473.005 63.4883 471.307L67.168 469.09L62.7324 461.729L59.0527 463.945C57.5736 464.835 55.9709 465.5 54.2969 465.92V455.125H45.7031V465.92C44.0291 465.5 42.4264 464.835 40.9473 463.945L37.2676 461.729L32.832 469.09L36.5117 471.307C39.3342 473.005 42.453 474.154 45.7031 474.691V494.557L28.502 484.617C29.6618 481.533 30.2271 478.257 30.168 474.963L30.0879 470.666L21.4941 470.826L21.5742 475.123C21.6062 476.849 21.3811 478.571 20.9063 480.23L10.5469 474.266L6.25 481.707L16.6113 487.691C15.4108 488.93 14.0331 489.983 12.5234 490.816L8.76367 492.893L12.9199 500.414L16.6797 498.336C19.5626 496.741 22.1168 494.613 24.207 492.066L41.4062 502L24.2051 511.934C22.1149 509.387 19.5606 507.259 16.6777 505.664L12.9199 503.586L8.76367 511.107L12.5234 513.186C14.0331 514.019 15.4108 515.072 16.6113 516.311L6.25 522.312L10.5469 529.754L20.9082 523.771C21.3831 525.431 21.6082 527.153 21.5762 528.879L21.4961 533.176L30.0898 533.336L30.1699 529.039C30.2286 525.744 29.6627 522.467 28.502 519.383L45.7031 509.443V529.309C42.453 529.846 39.3342 530.995 36.5117 532.693L32.832 534.91L37.2676 542.271L40.9473 540.055C42.4264 539.165 44.0291 538.5 45.7031 538.08V548.875H54.2969V538.08C55.9709 538.5 57.5736 539.165 59.0527 540.055L62.7324 542.271L67.168 534.91L63.4883 532.693C60.6658 530.995 57.547 529.846 54.2969 529.309V509.443L71.498 519.383C70.3382 522.467 69.7729 525.743 69.832 529.037L69.9121 533.334L78.5059 533.174L78.4258 528.877C78.3955 527.148 78.6233 525.424 79.1016 523.762L89.4531 529.744L93.75 522.312L83.3984 516.318C84.5955 515.078 85.9698 514.023 87.4766 513.186V513.186Z" fill="white"/>
<path d="M193.477 174.186L197.236 172.107L193.08 164.586L189.32 166.664C186.437 168.259 183.883 170.387 181.793 172.934L164.594 163L181.795 153.066C183.885 155.613 186.439 157.741 189.322 159.336L193.082 161.414L197.238 153.893L193.479 151.814C191.969 150.981 190.591 149.928 189.391 148.689L199.75 142.697L195.453 135.266L185.102 141.238C184.627 139.578 184.402 137.857 184.434 136.131L184.514 131.834L175.92 131.674L175.84 135.971C175.779 139.262 176.342 142.535 177.498 145.617L160.297 155.557V135.691C163.547 135.154 166.666 134.005 169.488 132.307L173.168 130.09L168.732 122.729L165.053 124.945C163.574 125.835 161.971 126.5 160.297 126.92V116.125H151.703V126.92C150.029 126.5 148.426 125.835 146.947 124.945L143.268 122.729L138.832 130.09L142.512 132.307C145.334 134.005 148.453 135.154 151.703 135.691V155.557L134.502 145.617C135.662 142.533 136.227 139.257 136.168 135.963L136.088 131.666L127.494 131.826L127.574 136.123C127.606 137.849 127.381 139.571 126.906 141.23L116.547 135.266L112.25 142.707L122.611 148.691C121.411 149.93 120.033 150.983 118.523 151.816L114.764 153.893L118.92 161.414L122.68 159.336C125.563 157.741 128.117 155.613 130.207 153.066L147.406 163L130.205 172.934C128.115 170.387 125.561 168.259 122.678 166.664L118.92 164.586L114.764 172.107L118.523 174.186C120.033 175.019 121.411 176.072 122.611 177.311L112.25 183.312L116.547 190.754L126.908 184.771C127.383 186.431 127.608 188.153 127.576 189.879L127.496 194.176L136.09 194.336L136.17 190.039C136.229 186.744 135.663 183.467 134.502 180.383L151.703 170.443V190.309C148.453 190.846 145.334 191.995 142.512 193.693L138.832 195.91L143.268 203.271L146.947 201.055C148.426 200.165 150.029 199.5 151.703 199.08V209.875H160.297V199.08C161.971 199.5 163.574 200.165 165.053 201.055L168.732 203.271L173.168 195.91L169.488 193.693C166.666 191.995 163.547 190.846 160.297 190.309V170.443L177.498 180.383C176.338 183.467 175.773 186.743 175.832 190.037L175.912 194.334L184.506 194.174L184.426 189.877C184.396 188.148 184.623 186.424 185.102 184.762L195.453 190.744L199.75 183.312L189.398 177.318C190.595 176.078 191.97 175.023 193.477 174.186V174.186Z" fill="white"/>
<path d="M193.477 400.186L197.236 398.107L193.08 390.586L189.32 392.664C186.437 394.259 183.883 396.387 181.793 398.934L164.594 389L181.795 379.066C183.885 381.613 186.439 383.741 189.322 385.336L193.082 387.414L197.238 379.893L193.479 377.814C191.969 376.981 190.591 375.928 189.391 374.689L199.75 368.697L195.453 361.266L185.102 367.238C184.627 365.578 184.402 363.857 184.434 362.131L184.514 357.834L175.92 357.674L175.84 361.971C175.779 365.262 176.342 368.535 177.498 371.617L160.297 381.557V361.691C163.547 361.154 166.666 360.005 169.488 358.307L173.168 356.09L168.732 348.729L165.053 350.945C163.574 351.835 161.971 352.5 160.297 352.92V342.125H151.703V352.92C150.029 352.5 148.426 351.835 146.947 350.945L143.268 348.729L138.832 356.09L142.512 358.307C145.334 360.005 148.453 361.154 151.703 361.691V381.557L134.502 371.617C135.662 368.533 136.227 365.257 136.168 361.963L136.088 357.666L127.494 357.826L127.574 362.123C127.606 363.849 127.381 365.571 126.906 367.23L116.547 361.266L112.25 368.707L122.611 374.691C121.411 375.93 120.033 376.983 118.523 377.816L114.764 379.893L118.92 387.414L122.68 385.336C125.563 383.741 128.117 381.613 130.207 379.066L147.406 389L130.205 398.934C128.115 396.387 125.561 394.259 122.678 392.664L118.92 390.586L114.764 398.107L118.523 400.186C120.033 401.019 121.411 402.072 122.611 403.311L112.25 409.312L116.547 416.754L126.908 410.771C127.383 412.431 127.608 414.153 127.576 415.879L127.496 420.176L136.09 420.336L136.17 416.039C136.229 412.744 135.663 409.467 134.502 406.383L151.703 396.443V416.309C148.453 416.846 145.334 417.995 142.512 419.693L138.832 421.91L143.268 429.271L146.947 427.055C148.426 426.165 150.029 425.5 151.703 425.08V435.875H160.297V425.08C161.971 425.5 163.574 426.165 165.053 427.055L168.732 429.271L173.168 421.91L169.488 419.693C166.666 417.995 163.547 416.846 160.297 416.309V396.443L177.498 406.383C176.338 409.467 175.773 412.743 175.832 416.037L175.912 420.334L184.506 420.174L184.426 415.877C184.396 414.148 184.623 412.424 185.102 410.762L195.453 416.744L199.75 409.312L189.398 403.318C190.595 402.078 191.97 401.023 193.477 400.186V400.186Z" fill="white"/>
<path d="M299.477 61.1855L303.236 59.1074L299.08 51.5859L295.32 53.6641C292.437 55.2592 289.883 57.3867 287.793 59.9336L270.594 50L287.795 40.0664C289.885 42.6133 292.439 44.7408 295.322 46.3359L299.082 48.4141L303.238 40.8926L299.479 38.8145C297.969 37.9807 296.591 36.9276 295.391 35.6895L305.75 29.6973L301.453 22.2656L291.102 28.2383C290.627 26.5784 290.402 24.857 290.434 23.1309L290.514 18.834L281.92 18.6738L281.84 22.9707C281.779 26.262 282.342 29.535 283.498 32.6172L266.297 42.5566V22.6914C269.547 22.1538 272.666 21.0053 275.488 19.3066L279.168 17.0898L274.732 9.72852L271.053 11.9453C269.574 12.8347 267.971 13.5001 266.297 13.9199V3.125H257.703V13.9199C256.029 13.5001 254.426 12.8347 252.947 11.9453L249.268 9.72852L244.832 17.0898L248.512 19.3066C251.334 21.0053 254.453 22.1538 257.703 22.6914V42.5566L240.502 32.6172C241.662 29.5331 242.227 26.2573 242.168 22.9629L242.088 18.666L233.494 18.8262L233.574 23.123C233.606 24.8492 233.381 26.5706 232.906 28.2305L222.547 22.2656L218.25 29.707L228.611 35.6914C227.411 36.9295 226.033 37.9826 224.523 38.8164L220.764 40.8926L224.92 48.4141L228.68 46.3359C231.563 44.7408 234.117 42.6133 236.207 40.0664L253.406 50L236.205 59.9336C234.115 57.3867 231.561 55.2592 228.678 53.6641L224.92 51.5859L220.764 59.1074L224.523 61.1855C226.033 62.0193 227.411 63.0724 228.611 64.3105L218.25 70.3125L222.547 77.7539L232.908 71.7715C233.383 73.4314 233.608 75.1527 233.576 76.8789L233.496 81.1758L242.09 81.3359L242.17 77.0391C242.229 73.7439 241.663 70.4674 240.502 67.3828L257.703 57.4434V77.3086C254.453 77.8462 251.334 78.9947 248.512 80.6934L244.832 82.9102L249.268 90.2715L252.947 88.0547C254.426 87.1653 256.029 86.4999 257.703 86.0801V96.875H266.297V86.0801C267.971 86.4999 269.574 87.1653 271.053 88.0547L274.732 90.2715L279.168 82.9102L275.488 80.6934C272.666 78.9947 269.547 77.8462 266.297 77.3086V57.4434L283.498 67.3828C282.338 70.4669 281.773 73.7427 281.832 77.0371L281.912 81.334L290.506 81.1738L290.426 76.877C290.396 75.1478 290.623 73.4237 291.102 71.7617L301.453 77.7441L305.75 70.3125L295.398 64.3184C296.595 63.0783 297.97 62.0225 299.477 61.1855V61.1855Z" fill="white"/>
<path d="M299.477 287.186L303.236 285.107L299.08 277.586L295.32 279.664C292.437 281.259 289.883 283.387 287.793 285.934L270.594 276L287.795 266.066C289.885 268.613 292.439 270.741 295.322 272.336L299.082 274.414L303.238 266.893L299.479 264.814C297.969 263.981 296.591 262.928 295.391 261.689L305.75 255.697L301.453 248.266L291.102 254.238C290.627 252.578 290.402 250.857 290.434 249.131L290.514 244.834L281.92 244.674L281.84 248.971C281.779 252.262 282.342 255.535 283.498 258.617L266.297 268.557V248.691C269.547 248.154 272.666 247.005 275.488 245.307L279.168 243.09L274.732 235.729L271.053 237.945C269.574 238.835 267.971 239.5 266.297 239.92V229.125H257.703V239.92C256.029 239.5 254.426 238.835 252.947 237.945L249.268 235.729L244.832 243.09L248.512 245.307C251.334 247.005 254.453 248.154 257.703 248.691V268.557L240.502 258.617C241.662 255.533 242.227 252.257 242.168 248.963L242.088 244.666L233.494 244.826L233.574 249.123C233.606 250.849 233.381 252.571 232.906 254.23L222.547 248.266L218.25 255.707L228.611 261.691C227.411 262.93 226.033 263.983 224.523 264.816L220.764 266.893L224.92 274.414L228.68 272.336C231.563 270.741 234.117 268.613 236.207 266.066L253.406 276L236.205 285.934C234.115 283.387 231.561 281.259 228.678 279.664L224.92 277.586L220.764 285.107L224.523 287.186C226.033 288.019 227.411 289.072 228.611 290.311L218.25 296.312L222.547 303.754L232.908 297.771C233.383 299.431 233.608 301.153 233.576 302.879L233.496 307.176L242.09 307.336L242.17 303.039C242.229 299.744 241.663 296.467 240.502 293.383L257.703 283.443V303.309C254.453 303.846 251.334 304.995 248.512 306.693L244.832 308.91L249.268 316.271L252.947 314.055C254.426 313.165 256.029 312.5 257.703 312.08V322.875H266.297V312.08C267.971 312.5 269.574 313.165 271.053 314.055L274.732 316.271L279.168 308.91L275.488 306.693C272.666 304.995 269.547 303.846 266.297 303.309V283.443L283.498 293.383C282.338 296.467 281.773 299.743 281.832 303.037L281.912 307.334L290.506 307.174L290.426 302.877C290.396 301.148 290.623 299.424 291.102 297.762L301.453 303.744L305.75 296.312L295.398 290.318C296.595 289.078 297.97 288.023 299.477 287.186V287.186Z" fill="white"/>
<path d="M299.477 513.186L303.236 511.107L299.08 503.586L295.32 505.664C292.437 507.259 289.883 509.387 287.793 511.934L270.594 502L287.795 492.066C289.885 494.613 292.439 496.741 295.322 498.336L299.082 500.414L303.238 492.893L299.479 490.814C297.969 489.981 296.591 488.928 295.391 487.689L305.75 481.697L301.453 474.266L291.102 480.238C290.627 478.578 290.402 476.857 290.434 475.131L290.514 470.834L281.92 470.674L281.84 474.971C281.779 478.262 282.342 481.535 283.498 484.617L266.297 494.557V474.691C269.547 474.154 272.666 473.005 275.488 471.307L279.168 469.09L274.732 461.729L271.053 463.945C269.574 464.835 267.971 465.5 266.297 465.92V455.125H257.703V465.92C256.029 465.5 254.426 464.835 252.947 463.945L249.268 461.729L244.832 469.09L248.512 471.307C251.334 473.005 254.453 474.154 257.703 474.691V494.557L240.502 484.617C241.662 481.533 242.227 478.257 242.168 474.963L242.088 470.666L233.494 470.826L233.574 475.123C233.606 476.849 233.381 478.571 232.906 480.23L222.547 474.266L218.25 481.707L228.611 487.691C227.411 488.93 226.033 489.983 224.523 490.816L220.764 492.893L224.92 500.414L228.68 498.336C231.563 496.741 234.117 494.613 236.207 492.066L253.406 502L236.205 511.934C234.115 509.387 231.561 507.259 228.678 505.664L224.92 503.586L220.764 511.107L224.523 513.186C226.033 514.019 227.411 515.072 228.611 516.311L218.25 522.312L222.547 529.754L232.908 523.771C233.383 525.431 233.608 527.153 233.576 528.879L233.496 533.176L242.09 533.336L242.17 529.039C242.229 525.744 241.663 522.467 240.502 519.383L257.703 509.443V529.309C254.453 529.846 251.334 530.995 248.512 532.693L244.832 534.91L249.268 542.271L252.947 540.055C254.426 539.165 256.029 538.5 257.703 538.08V548.875H266.297V538.08C267.971 538.5 269.574 539.165 271.053 540.055L274.732 542.271L279.168 534.91L275.488 532.693C272.666 530.995 269.547 529.846 266.297 529.309V509.443L283.498 519.383C282.338 522.467 281.773 525.743 281.832 529.037L281.912 533.334L290.506 533.174L290.426 528.877C290.396 527.148 290.623 525.424 291.102 523.762L301.453 529.744L305.75 522.312L295.398 516.318C296.595 515.078 297.97 514.023 299.477 513.186V513.186Z" fill="white"/>
</svg>
