<svg width="1400" height="896" viewBox="0 0 1400 896" fill="none" xmlns="http://www.w3.org/2000/svg">
<path d="M174.953 122.371L182.473 118.215L174.16 103.172L166.641 107.328C160.875 110.518 155.766 114.773 151.586 119.867L117.188 100L151.59 80.1328C155.77 85.2267 160.879 89.4815 166.645 92.6719L174.164 96.8281L182.477 81.7852L174.957 77.6289C171.938 75.9614 169.182 73.8551 166.781 71.3789L187.5 59.3945L178.906 44.5312L158.203 56.4766C157.253 53.1568 156.803 49.7141 156.867 46.2617L157.027 37.668L139.84 37.3477L139.68 45.9414C139.558 52.524 140.684 59.0701 142.996 65.2344L108.594 85.1133V45.3828C115.094 44.3076 121.332 42.0106 126.977 38.6133L134.336 34.1797L125.465 19.457L118.105 23.8906C115.147 25.6694 111.942 27.0002 108.594 27.8398V6.25H91.4062V27.8398C88.0581 27.0002 84.8528 25.6694 81.8945 23.8906L74.5352 19.457L65.6641 34.1797L73.0234 38.6133C78.6685 42.0106 84.9061 44.3076 91.4062 45.3828V85.1133L57.0039 65.2344C59.3235 59.0662 60.4541 52.5146 60.3359 45.9258L60.1758 37.332L42.9883 37.6523L43.1484 46.2461C43.2125 49.6985 42.7622 53.1411 41.8125 56.4609L21.0938 44.5312L12.5 59.4141L33.2227 71.3828C30.8215 73.859 28.0662 75.9653 25.0469 77.6328L17.5273 81.7852L25.8398 96.8281L33.3594 92.6719C39.1252 89.4815 44.2337 85.2267 48.4141 80.1328L82.8125 100L48.4102 119.867C44.2298 114.773 39.1213 110.518 33.3555 107.328L25.8398 103.172L17.5273 118.215L25.0469 122.371C28.0662 124.039 30.8215 126.145 33.2227 128.621L12.5 140.625L21.0938 155.508L41.8164 143.543C42.7661 146.863 43.2164 150.305 43.1523 153.758L42.9922 162.352L60.1797 162.672L60.3398 154.078C60.4573 147.488 59.3253 140.935 57.0039 134.766L91.4062 114.887V154.617C84.9061 155.692 78.6685 157.989 73.0234 161.387L65.6641 165.82L74.5352 180.543L81.8945 176.109C84.8528 174.331 88.0581 173 91.4062 172.16V193.75H108.594V172.16C111.942 173 115.147 174.331 118.105 176.109L125.465 180.543L134.336 165.82L126.977 161.387C121.332 157.989 115.094 155.692 108.594 154.617V114.887L142.996 134.766C140.676 140.934 139.546 147.485 139.664 154.074L139.824 162.668L157.012 162.348L156.852 153.754C156.791 150.296 157.247 146.847 158.203 143.523L178.906 155.488L187.5 140.625L166.797 128.637C169.191 126.157 171.94 124.045 174.953 122.371V122.371Z" fill="white"/>
<path d="M176.953 586.371L184.473 582.215L176.16 567.172L168.641 571.328C162.875 574.518 157.766 578.773 153.586 583.867L119.188 564L153.59 544.133C157.77 549.227 162.879 553.482 168.645 556.672L176.164 560.828L184.477 545.785L176.957 541.629C173.938 539.961 171.182 537.855 168.781 535.379L189.5 523.395L180.906 508.531L160.203 520.477C159.253 517.157 158.803 513.714 158.867 510.262L159.027 501.668L141.84 501.348L141.68 509.941C141.558 516.524 142.684 523.07 144.996 529.234L110.594 549.113V509.383C117.094 508.308 123.332 506.011 128.977 502.613L136.336 498.18L127.465 483.457L120.105 487.891C117.147 489.669 113.942 491 110.594 491.84V470.25H93.4062V491.84C90.0581 491 86.8528 489.669 83.8945 487.891L76.5352 483.457L67.6641 498.18L75.0234 502.613C80.6685 506.011 86.9061 508.308 93.4062 509.383V549.113L59.0039 529.234C61.3235 523.066 62.4541 516.515 62.3359 509.926L62.1758 501.332L44.9883 501.652L45.1484 510.246C45.2125 513.698 44.7622 517.141 43.8125 520.461L23.0938 508.531L14.5 523.414L35.2227 535.383C32.8215 537.859 30.0662 539.965 27.0469 541.633L19.5273 545.785L27.8398 560.828L35.3594 556.672C41.1252 553.482 46.2337 549.227 50.4141 544.133L84.8125 564L50.4102 583.867C46.2298 578.773 41.1213 574.518 35.3555 571.328L27.8398 567.172L19.5273 582.215L27.0469 586.371C30.0662 588.039 32.8215 590.145 35.2227 592.621L14.5 604.625L23.0938 619.508L43.8164 607.543C44.7661 610.863 45.2164 614.305 45.1523 617.758L44.9922 626.352L62.1797 626.672L62.3398 618.078C62.4573 611.488 61.3253 604.935 59.0039 598.766L93.4062 578.887V618.617C86.9061 619.692 80.6685 621.989 75.0234 625.387L67.6641 629.82L76.5352 644.543L83.8945 640.109C86.8528 638.331 90.0581 637 93.4062 636.16V657.75H110.594V636.16C113.942 637 117.147 638.331 120.105 640.109L127.465 644.543L136.336 629.82L128.977 625.387C123.332 621.989 117.094 619.692 110.594 618.617V578.887L144.996 598.766C142.676 604.934 141.546 611.485 141.664 618.074L141.824 626.668L159.012 626.348L158.852 617.754C158.791 614.296 159.247 610.847 160.203 607.523L180.906 619.488L189.5 604.625L168.797 592.637C171.191 590.157 173.94 588.045 176.953 586.371V586.371Z" fill="white"/>
<path d="M414.953 354.371L422.473 350.215L414.16 335.172L406.641 339.328C400.875 342.518 395.766 346.773 391.586 351.867L357.188 332L391.59 312.133C395.77 317.227 400.879 321.482 406.645 324.672L414.164 328.828L422.477 313.785L414.957 309.629C411.938 307.961 409.182 305.855 406.781 303.379L427.5 291.395L418.906 276.531L398.203 288.477C397.253 285.157 396.803 281.714 396.867 278.262L397.027 269.668L379.84 269.348L379.68 277.941C379.558 284.524 380.684 291.07 382.996 297.234L348.594 317.113V277.383C355.094 276.308 361.332 274.011 366.977 270.613L374.336 266.18L365.465 251.457L358.105 255.891C355.147 257.669 351.942 259 348.594 259.84V238.25H331.406V259.84C328.058 259 324.853 257.669 321.895 255.891L314.535 251.457L305.664 266.18L313.023 270.613C318.668 274.011 324.906 276.308 331.406 277.383V317.113L297.004 297.234C299.324 291.066 300.454 284.515 300.336 277.926L300.176 269.332L282.988 269.652L283.148 278.246C283.212 281.698 282.762 285.141 281.813 288.461L261.094 276.531L252.5 291.414L273.223 303.383C270.822 305.859 268.066 307.965 265.047 309.633L257.527 313.785L265.84 328.828L273.359 324.672C279.125 321.482 284.234 317.227 288.414 312.133L322.812 332L288.41 351.867C284.23 346.773 279.121 342.518 273.355 339.328L265.84 335.172L257.527 350.215L265.047 354.371C268.066 356.039 270.822 358.145 273.223 360.621L252.5 372.625L261.094 387.508L281.816 375.543C282.766 378.863 283.216 382.305 283.152 385.758L282.992 394.352L300.18 394.672L300.34 386.078C300.457 379.488 299.325 372.935 297.004 366.766L331.406 346.887V386.617C324.906 387.692 318.668 389.989 313.023 393.387L305.664 397.82L314.535 412.543L321.895 408.109C324.853 406.331 328.058 405 331.406 404.16V425.75H348.594V404.16C351.942 405 355.147 406.331 358.105 408.109L365.465 412.543L374.336 397.82L366.977 393.387C361.332 389.989 355.094 387.692 348.594 386.617V346.887L382.996 366.766C380.676 372.934 379.546 379.485 379.664 386.074L379.824 394.668L397.012 394.348L396.852 385.754C396.791 382.296 397.247 378.847 398.203 375.523L418.906 387.488L427.5 372.625L406.797 360.637C409.191 358.157 411.94 356.045 414.953 354.371V354.371Z" fill="white"/>
<path d="M416.953 818.371L424.473 814.215L416.16 799.172L408.641 803.328C402.875 806.518 397.766 810.773 393.586 815.867L359.188 796L393.59 776.133C397.77 781.227 402.879 785.482 408.645 788.672L416.164 792.828L424.477 777.785L416.957 773.629C413.938 771.961 411.182 769.855 408.781 767.379L429.5 755.395L420.906 740.531L400.203 752.477C399.253 749.157 398.803 745.714 398.867 742.262L399.027 733.668L381.84 733.348L381.68 741.941C381.558 748.524 382.684 755.07 384.996 761.234L350.594 781.113V741.383C357.094 740.308 363.332 738.011 368.977 734.613L376.336 730.18L367.465 715.457L360.105 719.891C357.147 721.669 353.942 723 350.594 723.84V702.25H333.406V723.84C330.058 723 326.853 721.669 323.895 719.891L316.535 715.457L307.664 730.18L315.023 734.613C320.668 738.011 326.906 740.308 333.406 741.383V781.113L299.004 761.234C301.324 755.066 302.454 748.515 302.336 741.926L302.176 733.332L284.988 733.652L285.148 742.246C285.212 745.698 284.762 749.141 283.813 752.461L263.094 740.531L254.5 755.414L275.223 767.383C272.822 769.859 270.066 771.965 267.047 773.633L259.527 777.785L267.84 792.828L275.359 788.672C281.125 785.482 286.234 781.227 290.414 776.133L324.812 796L290.41 815.867C286.23 810.773 281.121 806.518 275.355 803.328L267.84 799.172L259.527 814.215L267.047 818.371C270.066 820.039 272.822 822.145 275.223 824.621L254.5 836.625L263.094 851.508L283.816 839.543C284.766 842.863 285.216 846.305 285.152 849.758L284.992 858.352L302.18 858.672L302.34 850.078C302.457 843.488 301.325 836.935 299.004 830.766L333.406 810.887V850.617C326.906 851.692 320.668 853.989 315.023 857.387L307.664 861.82L316.535 876.543L323.895 872.109C326.853 870.331 330.058 869 333.406 868.16V889.75H350.594V868.16C353.942 869 357.147 870.331 360.105 872.109L367.465 876.543L376.336 861.82L368.977 857.387C363.332 853.989 357.094 851.692 350.594 850.617V810.887L384.996 830.766C382.676 836.934 381.546 843.485 381.664 850.074L381.824 858.668L399.012 858.348L398.852 849.754C398.791 846.296 399.247 842.847 400.203 839.523L420.906 851.488L429.5 836.625L408.797 824.637C411.191 822.157 413.94 820.045 416.953 818.371V818.371Z" fill="white"/>
<path d="M654.953 122.371L662.473 118.215L654.16 103.172L646.641 107.328C640.875 110.518 635.766 114.773 631.586 119.867L597.188 100L631.59 80.1328C635.77 85.2267 640.879 89.4815 646.645 92.6719L654.164 96.8281L662.477 81.7852L654.957 77.6289C651.938 75.9614 649.182 73.8551 646.781 71.3789L667.5 59.3945L658.906 44.5312L638.203 56.4766C637.253 53.1568 636.803 49.7141 636.867 46.2617L637.027 37.668L619.84 37.3477L619.68 45.9414C619.558 52.524 620.684 59.0701 622.996 65.2344L588.594 85.1133V45.3828C595.094 44.3076 601.332 42.0106 606.977 38.6133L614.336 34.1797L605.465 19.457L598.105 23.8906C595.147 25.6694 591.942 27.0002 588.594 27.8398V6.25H571.406V27.8398C568.058 27.0002 564.853 25.6694 561.895 23.8906L554.535 19.457L545.664 34.1797L553.023 38.6133C558.668 42.0106 564.906 44.3076 571.406 45.3828V85.1133L537.004 65.2344C539.324 59.0662 540.454 52.5146 540.336 45.9258L540.176 37.332L522.988 37.6523L523.148 46.2461C523.212 49.6985 522.762 53.1411 521.813 56.4609L501.094 44.5312L492.5 59.4141L513.223 71.3828C510.822 73.859 508.066 75.9653 505.047 77.6328L497.527 81.7852L505.84 96.8281L513.359 92.6719C519.125 89.4815 524.234 85.2267 528.414 80.1328L562.812 100L528.41 119.867C524.23 114.773 519.121 110.518 513.355 107.328L505.84 103.172L497.527 118.215L505.047 122.371C508.066 124.039 510.822 126.145 513.223 128.621L492.5 140.625L501.094 155.508L521.816 143.543C522.766 146.863 523.216 150.305 523.152 153.758L522.992 162.352L540.18 162.672L540.34 154.078C540.457 147.488 539.325 140.935 537.004 134.766L571.406 114.887V154.617C564.906 155.692 558.668 157.989 553.023 161.387L545.664 165.82L554.535 180.543L561.895 176.109C564.853 174.331 568.058 173 571.406 172.16V193.75H588.594V172.16C591.942 173 595.147 174.331 598.105 176.109L605.465 180.543L614.336 165.82L606.977 161.387C601.332 157.989 595.094 155.692 588.594 154.617V114.887L622.996 134.766C620.676 140.934 619.546 147.485 619.664 154.074L619.824 162.668L637.012 162.348L636.852 153.754C636.791 150.296 637.247 146.847 638.203 143.523L658.906 155.488L667.5 140.625L646.797 128.637C649.191 126.157 651.94 124.045 654.953 122.371V122.371Z" fill="white"/>
<path d="M656.953 586.371L664.473 582.215L656.16 567.172L648.641 571.328C642.875 574.518 637.766 578.773 633.586 583.867L599.188 564L633.59 544.133C637.77 549.227 642.879 553.482 648.645 556.672L656.164 560.828L664.477 545.785L656.957 541.629C653.938 539.961 651.182 537.855 648.781 535.379L669.5 523.395L660.906 508.531L640.203 520.477C639.253 517.157 638.803 513.714 638.867 510.262L639.027 501.668L621.84 501.348L621.68 509.941C621.558 516.524 622.684 523.07 624.996 529.234L590.594 549.113V509.383C597.094 508.308 603.332 506.011 608.977 502.613L616.336 498.18L607.465 483.457L600.105 487.891C597.147 489.669 593.942 491 590.594 491.84V470.25H573.406V491.84C570.058 491 566.853 489.669 563.895 487.891L556.535 483.457L547.664 498.18L555.023 502.613C560.668 506.011 566.906 508.308 573.406 509.383V549.113L539.004 529.234C541.324 523.066 542.454 516.515 542.336 509.926L542.176 501.332L524.988 501.652L525.148 510.246C525.212 513.698 524.762 517.141 523.813 520.461L503.094 508.531L494.5 523.414L515.223 535.383C512.822 537.859 510.066 539.965 507.047 541.633L499.527 545.785L507.84 560.828L515.359 556.672C521.125 553.482 526.234 549.227 530.414 544.133L564.812 564L530.41 583.867C526.23 578.773 521.121 574.518 515.355 571.328L507.84 567.172L499.527 582.215L507.047 586.371C510.066 588.039 512.822 590.145 515.223 592.621L494.5 604.625L503.094 619.508L523.816 607.543C524.766 610.863 525.216 614.305 525.152 617.758L524.992 626.352L542.18 626.672L542.34 618.078C542.457 611.488 541.325 604.935 539.004 598.766L573.406 578.887V618.617C566.906 619.692 560.668 621.989 555.023 625.387L547.664 629.82L556.535 644.543L563.895 640.109C566.853 638.331 570.058 637 573.406 636.16V657.75H590.594V636.16C593.942 637 597.147 638.331 600.105 640.109L607.465 644.543L616.336 629.82L608.977 625.387C603.332 621.989 597.094 619.692 590.594 618.617V578.887L624.996 598.766C622.676 604.934 621.546 611.485 621.664 618.074L621.824 626.668L639.012 626.348L638.852 617.754C638.791 614.296 639.247 610.847 640.203 607.523L660.906 619.488L669.5 604.625L648.797 592.637C651.191 590.157 653.94 588.045 656.953 586.371V586.371Z" fill="white"/>
<path d="M894.953 354.371L902.473 350.215L894.16 335.172L886.641 339.328C880.875 342.518 875.766 346.773 871.586 351.867L837.188 332L871.59 312.133C875.77 317.227 880.879 321.482 886.645 324.672L894.164 328.828L902.477 313.785L894.957 309.629C891.938 307.961 889.182 305.855 886.781 303.379L907.5 291.395L898.906 276.531L878.203 288.477C877.253 285.157 876.803 281.714 876.867 278.262L877.027 269.668L859.84 269.348L859.68 277.941C859.558 284.524 860.684 291.07 862.996 297.234L828.594 317.113V277.383C835.094 276.308 841.332 274.011 846.977 270.613L854.336 266.18L845.465 251.457L838.105 255.891C835.147 257.669 831.942 259 828.594 259.84V238.25H811.406V259.84C808.058 259 804.853 257.669 801.895 255.891L794.535 251.457L785.664 266.18L793.023 270.613C798.668 274.011 804.906 276.308 811.406 277.383V317.113L777.004 297.234C779.324 291.066 780.454 284.515 780.336 277.926L780.176 269.332L762.988 269.652L763.148 278.246C763.212 281.698 762.762 285.141 761.813 288.461L741.094 276.531L732.5 291.414L753.223 303.383C750.822 305.859 748.066 307.965 745.047 309.633L737.527 313.785L745.84 328.828L753.359 324.672C759.125 321.482 764.234 317.227 768.414 312.133L802.812 332L768.41 351.867C764.23 346.773 759.121 342.518 753.355 339.328L745.84 335.172L737.527 350.215L745.047 354.371C748.066 356.039 750.822 358.145 753.223 360.621L732.5 372.625L741.094 387.508L761.816 375.543C762.766 378.863 763.216 382.305 763.152 385.758L762.992 394.352L780.18 394.672L780.34 386.078C780.457 379.488 779.325 372.935 777.004 366.766L811.406 346.887V386.617C804.906 387.692 798.668 389.989 793.023 393.387L785.664 397.82L794.535 412.543L801.895 408.109C804.853 406.331 808.058 405 811.406 404.16V425.75H828.594V404.16C831.942 405 835.147 406.331 838.105 408.109L845.465 412.543L854.336 397.82L846.977 393.387C841.332 389.989 835.094 387.692 828.594 386.617V346.887L862.996 366.766C860.676 372.934 859.546 379.485 859.664 386.074L859.824 394.668L877.012 394.348L876.852 385.754C876.791 382.296 877.247 378.847 878.203 375.523L898.906 387.488L907.5 372.625L886.797 360.637C889.191 358.157 891.94 356.045 894.953 354.371V354.371Z" fill="white"/>
<path d="M896.953 818.371L904.473 814.215L896.16 799.172L888.641 803.328C882.875 806.518 877.766 810.773 873.586 815.867L839.188 796L873.59 776.133C877.77 781.227 882.879 785.482 888.645 788.672L896.164 792.828L904.477 777.785L896.957 773.629C893.938 771.961 891.182 769.855 888.781 767.379L909.5 755.395L900.906 740.531L880.203 752.477C879.253 749.157 878.803 745.714 878.867 742.262L879.027 733.668L861.84 733.348L861.68 741.941C861.558 748.524 862.684 755.07 864.996 761.234L830.594 781.113V741.383C837.094 740.308 843.332 738.011 848.977 734.613L856.336 730.18L847.465 715.457L840.105 719.891C837.147 721.669 833.942 723 830.594 723.84V702.25H813.406V723.84C810.058 723 806.853 721.669 803.895 719.891L796.535 715.457L787.664 730.18L795.023 734.613C800.668 738.011 806.906 740.308 813.406 741.383V781.113L779.004 761.234C781.324 755.066 782.454 748.515 782.336 741.926L782.176 733.332L764.988 733.652L765.148 742.246C765.212 745.698 764.762 749.141 763.813 752.461L743.094 740.531L734.5 755.414L755.223 767.383C752.822 769.859 750.066 771.965 747.047 773.633L739.527 777.785L747.84 792.828L755.359 788.672C761.125 785.482 766.234 781.227 770.414 776.133L804.812 796L770.41 815.867C766.23 810.773 761.121 806.518 755.355 803.328L747.84 799.172L739.527 814.215L747.047 818.371C750.066 820.039 752.822 822.145 755.223 824.621L734.5 836.625L743.094 851.508L763.816 839.543C764.766 842.863 765.216 846.305 765.152 849.758L764.992 858.352L782.18 858.672L782.34 850.078C782.457 843.488 781.325 836.935 779.004 830.766L813.406 810.887V850.617C806.906 851.692 800.668 853.989 795.023 857.387L787.664 861.82L796.535 876.543L803.895 872.109C806.853 870.331 810.058 869 813.406 868.16V889.75H830.594V868.16C833.942 869 837.147 870.331 840.105 872.109L847.465 876.543L856.336 861.82L848.977 857.387C843.332 853.989 837.094 851.692 830.594 850.617V810.887L864.996 830.766C862.676 836.934 861.546 843.485 861.664 850.074L861.824 858.668L879.012 858.348L878.852 849.754C878.791 846.296 879.247 842.847 880.203 839.523L900.906 851.488L909.5 836.625L888.797 824.637C891.191 822.157 893.94 820.045 896.953 818.371V818.371Z" fill="white"/>
<path d="M1134.95 122.371L1142.47 118.215L1134.16 103.172L1126.64 107.328C1120.87 110.518 1115.77 114.773 1111.59 119.867L1077.19 100L1111.59 80.1328C1115.77 85.2267 1120.88 89.4815 1126.64 92.6719L1134.16 96.8281L1142.48 81.7852L1134.96 77.6289C1131.94 75.9614 1129.18 73.8551 1126.78 71.3789L1147.5 59.3945L1138.91 44.5312L1118.2 56.4766C1117.25 53.1568 1116.8 49.7141 1116.87 46.2617L1117.03 37.668L1099.84 37.3477L1099.68 45.9414C1099.56 52.524 1100.68 59.0701 1103 65.2344L1068.59 85.1133V45.3828C1075.09 44.3076 1081.33 42.0106 1086.98 38.6133L1094.34 34.1797L1085.46 19.457L1078.11 23.8906C1075.15 25.6694 1071.94 27.0002 1068.59 27.8398V6.25H1051.41V27.8398C1048.06 27.0002 1044.85 25.6694 1041.89 23.8906L1034.54 19.457L1025.66 34.1797L1033.02 38.6133C1038.67 42.0106 1044.91 44.3076 1051.41 45.3828V85.1133L1017 65.2344C1019.32 59.0662 1020.45 52.5146 1020.34 45.9258L1020.18 37.332L1002.99 37.6523L1003.15 46.2461C1003.21 49.6985 1002.76 53.1411 1001.81 56.4609L981.094 44.5312L972.5 59.4141L993.223 71.3828C990.822 73.859 988.066 75.9653 985.047 77.6328L977.527 81.7852L985.84 96.8281L993.359 92.6719C999.125 89.4815 1004.23 85.2267 1008.41 80.1328L1042.81 100L1008.41 119.867C1004.23 114.773 999.121 110.518 993.355 107.328L985.84 103.172L977.527 118.215L985.047 122.371C988.066 124.039 990.822 126.145 993.223 128.621L972.5 140.625L981.094 155.508L1001.82 143.543C1002.77 146.863 1003.22 150.305 1003.15 153.758L1002.99 162.352L1020.18 162.672L1020.34 154.078C1020.46 147.488 1019.33 140.935 1017 134.766L1051.41 114.887V154.617C1044.91 155.692 1038.67 157.989 1033.02 161.387L1025.66 165.82L1034.54 180.543L1041.89 176.109C1044.85 174.331 1048.06 173 1051.41 172.16V193.75H1068.59V172.16C1071.94 173 1075.15 174.331 1078.11 176.109L1085.46 180.543L1094.34 165.82L1086.98 161.387C1081.33 157.989 1075.09 155.692 1068.59 154.617V114.887L1103 134.766C1100.68 140.934 1099.55 147.485 1099.66 154.074L1099.82 162.668L1117.01 162.348L1116.85 153.754C1116.79 150.296 1117.25 146.847 1118.2 143.523L1138.91 155.488L1147.5 140.625L1126.8 128.637C1129.19 126.157 1131.94 124.045 1134.95 122.371V122.371Z" fill="white"/>
<path d="M1136.95 586.371L1144.47 582.215L1136.16 567.172L1128.64 571.328C1122.87 574.518 1117.77 578.773 1113.59 583.867L1079.19 564L1113.59 544.133C1117.77 549.227 1122.88 553.482 1128.64 556.672L1136.16 560.828L1144.48 545.785L1136.96 541.629C1133.94 539.961 1131.18 537.855 1128.78 535.379L1149.5 523.395L1140.91 508.531L1120.2 520.477C1119.25 517.157 1118.8 513.714 1118.87 510.262L1119.03 501.668L1101.84 501.348L1101.68 509.941C1101.56 516.524 1102.68 523.07 1105 529.234L1070.59 549.113V509.383C1077.09 508.308 1083.33 506.011 1088.98 502.613L1096.34 498.18L1087.46 483.457L1080.11 487.891C1077.15 489.669 1073.94 491 1070.59 491.84V470.25H1053.41V491.84C1050.06 491 1046.85 489.669 1043.89 487.891L1036.54 483.457L1027.66 498.18L1035.02 502.613C1040.67 506.011 1046.91 508.308 1053.41 509.383V549.113L1019 529.234C1021.32 523.066 1022.45 516.515 1022.34 509.926L1022.18 501.332L1004.99 501.652L1005.15 510.246C1005.21 513.698 1004.76 517.141 1003.81 520.461L983.094 508.531L974.5 523.414L995.223 535.383C992.822 537.859 990.066 539.965 987.047 541.633L979.527 545.785L987.84 560.828L995.359 556.672C1001.13 553.482 1006.23 549.227 1010.41 544.133L1044.81 564L1010.41 583.867C1006.23 578.773 1001.12 574.518 995.355 571.328L987.84 567.172L979.527 582.215L987.047 586.371C990.066 588.039 992.822 590.145 995.223 592.621L974.5 604.625L983.094 619.508L1003.82 607.543C1004.77 610.863 1005.22 614.305 1005.15 617.758L1004.99 626.352L1022.18 626.672L1022.34 618.078C1022.46 611.488 1021.33 604.935 1019 598.766L1053.41 578.887V618.617C1046.91 619.692 1040.67 621.989 1035.02 625.387L1027.66 629.82L1036.54 644.543L1043.89 640.109C1046.85 638.331 1050.06 637 1053.41 636.16V657.75H1070.59V636.16C1073.94 637 1077.15 638.331 1080.11 640.109L1087.46 644.543L1096.34 629.82L1088.98 625.387C1083.33 621.989 1077.09 619.692 1070.59 618.617V578.887L1105 598.766C1102.68 604.934 1101.55 611.485 1101.66 618.074L1101.82 626.668L1119.01 626.348L1118.85 617.754C1118.79 614.296 1119.25 610.847 1120.2 607.523L1140.91 619.488L1149.5 604.625L1128.8 592.637C1131.19 590.157 1133.94 588.045 1136.95 586.371V586.371Z" fill="white"/>
<path d="M1374.95 354.371L1382.47 350.215L1374.16 335.172L1366.64 339.328C1360.87 342.518 1355.77 346.773 1351.59 351.867L1317.19 332L1351.59 312.133C1355.77 317.227 1360.88 321.482 1366.64 324.672L1374.16 328.828L1382.48 313.785L1374.96 309.629C1371.94 307.961 1369.18 305.855 1366.78 303.379L1387.5 291.395L1378.91 276.531L1358.2 288.477C1357.25 285.157 1356.8 281.714 1356.87 278.262L1357.03 269.668L1339.84 269.348L1339.68 277.941C1339.56 284.524 1340.68 291.07 1343 297.234L1308.59 317.113V277.383C1315.09 276.308 1321.33 274.011 1326.98 270.613L1334.34 266.18L1325.46 251.457L1318.11 255.891C1315.15 257.669 1311.94 259 1308.59 259.84V238.25H1291.41V259.84C1288.06 259 1284.85 257.669 1281.89 255.891L1274.54 251.457L1265.66 266.18L1273.02 270.613C1278.67 274.011 1284.91 276.308 1291.41 277.383V317.113L1257 297.234C1259.32 291.066 1260.45 284.515 1260.34 277.926L1260.18 269.332L1242.99 269.652L1243.15 278.246C1243.21 281.698 1242.76 285.141 1241.81 288.461L1221.09 276.531L1212.5 291.414L1233.22 303.383C1230.82 305.859 1228.07 307.965 1225.05 309.633L1217.53 313.785L1225.84 328.828L1233.36 324.672C1239.13 321.482 1244.23 317.227 1248.41 312.133L1282.81 332L1248.41 351.867C1244.23 346.773 1239.12 342.518 1233.36 339.328L1225.84 335.172L1217.53 350.215L1225.05 354.371C1228.07 356.039 1230.82 358.145 1233.22 360.621L1212.5 372.625L1221.09 387.508L1241.82 375.543C1242.77 378.863 1243.22 382.305 1243.15 385.758L1242.99 394.352L1260.18 394.672L1260.34 386.078C1260.46 379.488 1259.33 372.935 1257 366.766L1291.41 346.887V386.617C1284.91 387.692 1278.67 389.989 1273.02 393.387L1265.66 397.82L1274.54 412.543L1281.89 408.109C1284.85 406.331 1288.06 405 1291.41 404.16V425.75H1308.59V404.16C1311.94 405 1315.15 406.331 1318.11 408.109L1325.46 412.543L1334.34 397.82L1326.98 393.387C1321.33 389.989 1315.09 387.692 1308.59 386.617V346.887L1343 366.766C1340.68 372.934 1339.55 379.485 1339.66 386.074L1339.82 394.668L1357.01 394.348L1356.85 385.754C1356.79 382.296 1357.25 378.847 1358.2 375.523L1378.91 387.488L1387.5 372.625L1366.8 360.637C1369.19 358.157 1371.94 356.045 1374.95 354.371V354.371Z" fill="white"/>
<path d="M1374.45 824.121L1381.97 819.965L1373.66 804.922L1366.14 809.078C1360.37 812.268 1355.27 816.523 1351.09 821.617L1316.69 801.75L1351.09 781.883C1355.27 786.977 1360.38 791.232 1366.14 794.422L1373.66 798.578L1381.98 783.535L1374.46 779.379C1371.44 777.711 1368.68 775.605 1366.28 773.129L1387 761.145L1378.41 746.281L1357.7 758.227C1356.75 754.907 1356.3 751.464 1356.37 748.012L1356.53 739.418L1339.34 739.098L1339.18 747.691C1339.06 754.274 1340.18 760.82 1342.5 766.984L1308.09 786.863V747.133C1314.59 746.058 1320.83 743.761 1326.48 740.363L1333.84 735.93L1324.96 721.207L1317.61 725.641C1314.65 727.419 1311.44 728.75 1308.09 729.59V708H1290.91V729.59C1287.56 728.75 1284.35 727.419 1281.39 725.641L1274.04 721.207L1265.16 735.93L1272.52 740.363C1278.17 743.761 1284.41 746.058 1290.91 747.133V786.863L1256.5 766.984C1258.82 760.816 1259.95 754.265 1259.84 747.676L1259.68 739.082L1242.49 739.402L1242.65 747.996C1242.71 751.448 1242.26 754.891 1241.31 758.211L1220.59 746.281L1212 761.164L1232.72 773.133C1230.32 775.609 1227.57 777.715 1224.55 779.383L1217.03 783.535L1225.34 798.578L1232.86 794.422C1238.63 791.232 1243.73 786.977 1247.91 781.883L1282.31 801.75L1247.91 821.617C1243.73 816.523 1238.62 812.268 1232.86 809.078L1225.34 804.922L1217.03 819.965L1224.55 824.121C1227.57 825.789 1230.32 827.895 1232.72 830.371L1212 842.375L1220.59 857.258L1241.32 845.293C1242.27 848.613 1242.72 852.055 1242.65 855.508L1242.49 864.102L1259.68 864.422L1259.84 855.828C1259.96 849.238 1258.83 842.685 1256.5 836.516L1290.91 816.637V856.367C1284.41 857.442 1278.17 859.739 1272.52 863.137L1265.16 867.57L1274.04 882.293L1281.39 877.859C1284.35 876.081 1287.56 874.75 1290.91 873.91V895.5H1308.09V873.91C1311.44 874.75 1314.65 876.081 1317.61 877.859L1324.96 882.293L1333.84 867.57L1326.48 863.137C1320.83 859.739 1314.59 857.442 1308.09 856.367V816.637L1342.5 836.516C1340.18 842.684 1339.05 849.235 1339.16 855.824L1339.32 864.418L1356.51 864.098L1356.35 855.504C1356.29 852.046 1356.75 848.597 1357.7 845.273L1378.41 857.238L1387 842.375L1366.3 830.387C1368.69 827.907 1371.44 825.795 1374.45 824.121V824.121Z" fill="white"/>
</svg>
